<svg width="437" height="427" viewBox="0 0 437 427" fill="none" xmlns="http://www.w3.org/2000/svg">
<path d="M136.764 23.8974C164.787 18.4439 201.097 33.1911 224.722 69.5745C243.982 66.683 269.806 68.4055 293.67 79.0915C319.609 90.7068 343.017 112.876 352.942 150.084C363.255 149.123 375.488 148.9 386.503 150.624C394.128 151.818 402.327 154.111 408.915 158.692C416.028 163.639 421.215 171.319 421.272 181.624C421.317 189.805 416.979 196.16 412.271 200.599C407.571 205.03 401.423 208.633 394.981 211.63C382.024 217.659 365.08 222.502 348.229 226.361C319.509 232.938 288.852 237.125 274.178 239.123C269.887 246.888 262.685 256.527 252.289 265.216C254.934 265.081 257.664 265.289 260.412 265.981C266.339 267.476 271.324 270.977 275.071 276.044C278.343 280.469 278.743 285.542 278.641 288.895C278.531 292.514 277.759 296.243 276.807 299.661C274.89 306.541 271.654 314.182 268.419 321.003C265.281 327.619 261.942 333.881 259.331 338.59C261.839 340.916 264.797 343.752 267.891 346.915C275.95 355.155 286.477 367.131 291.102 378.628C294.255 386.467 290.837 393.537 286.92 397.671C283.052 401.752 277.687 404.432 272.11 405.946C260.693 409.046 245.539 408.107 229.313 400.522C216.199 394.392 207.094 387.606 200.015 381.415C196.572 378.405 193.55 375.48 191.086 373.15C190.243 372.354 189.467 371.629 188.741 370.966C170.372 374.813 144.035 376.441 117.283 370.363C87.1224 363.511 55.8159 346.672 35.6714 311.714C-11.975 229.029 32.4912 124.96 113.528 88.8481C112.288 79.8797 111.574 69.1562 112.493 59.2192C113.133 52.2891 114.645 44.8022 118.03 38.4247C121.574 31.7485 127.575 25.6857 136.764 23.8974ZM169.15 247.187C163.056 248.519 156.961 250.35 151.379 253.166C141.24 258.28 133.15 266.44 131.117 282.047C129.735 292.654 131.53 301.18 135.246 307.679C138.949 314.158 145.016 319.425 153.599 322.799C162.596 326.335 171.731 327.116 182.171 324.738C188.999 313.05 201.885 296.789 215.562 284.498C214.425 284.814 213.273 285.115 212.103 285.396C202.071 287.814 192.746 287.782 184.93 283.971C176.764 279.988 172.404 272.957 170.405 265.994C168.677 259.977 168.507 253.416 169.15 247.187Z" fill="black" stroke="white" stroke-width="23.8288"/>
<circle cx="281.139" cy="154.289" r="11.9144" transform="rotate(-8.28639 281.139 154.289)" fill="white" stroke="white" stroke-width="1.56541"/>
</svg>
