<svg width="667" height="629" viewBox="0 0 667 629" fill="none" xmlns="http://www.w3.org/2000/svg">
<path d="M186.295 18.8599C228.983 7.9549 287.924 27.8644 328.304 84.9866C358.295 77.9549 400.657 77.6744 440.53 92.8146C482.965 108.932 522.34 142.489 540.648 202.579C557.707 199.683 579.01 197.729 598.051 199.584C610.06 200.751 622.485 203.557 632.467 209.674C643.073 216.172 650.892 226.507 651.815 240.978C652.512 252 647.2 261.177 640.63 268.127C634.069 275.077 625.1 281.104 615.263 286.398C595.508 297.023 569.146 306.272 542.503 314.018C495.245 327.765 444.394 337.557 422.213 341.91C411.39 366.145 382.322 405.557 328.919 421.756C313.68 426.38 300.141 426.896 288.865 422.19C277.182 417.312 270.44 407.873 266.956 397.955C263.055 386.842 262.784 373.973 264.105 362.226C251.643 365.258 238.594 369.367 227.01 376.082C209.851 386.027 196.277 401.439 194.313 428.914C193.01 447.14 196.892 461.955 204.25 473.249C211.589 484.516 222.946 493.159 238.159 498.136C254.838 503.602 271.48 503.765 290.023 497.928C299.499 478.471 319.987 449.023 342.114 427.258C354.295 415.285 368.232 404.362 382.268 399.294C389.444 396.706 397.381 395.376 405.417 396.914C413.716 398.498 420.937 402.923 426.675 409.81C431.164 415.204 432.186 421.81 432.313 426.706C432.458 431.901 431.661 437.484 430.494 442.851C428.15 453.638 423.797 465.882 419.272 477.059C414.702 488.353 409.734 499.068 405.933 506.932C405.435 507.955 404.956 508.932 404.503 509.864C409.29 513.729 415.58 518.987 422.268 525.077C436.005 537.575 453.281 555.213 461.281 572.172C465.842 581.837 462.159 591.204 457.118 597.177C452.132 603.086 444.756 607.43 436.575 610.163C419.924 615.738 396.829 615.81 371.073 605.548C349.987 597.15 335.164 587.376 323.517 578.326C317.806 573.892 312.793 569.566 308.548 566C306.232 564.054 304.159 562.335 302.213 560.824C273.652 568.969 230.937 574.525 186.838 567.168C138.82 559.149 88.4397 535.638 53.8153 482.887C-29.3431 356.181 32.9374 186.009 159.942 123.168C156.765 108.416 154.159 89.8373 154.747 72.706C155.118 61.8463 156.793 50.4979 161.209 40.878C165.779 30.9142 173.716 22.0635 186.277 18.8599H186.295Z" stroke="white" stroke-width="30"/>
<path d="M433.516 229.774C444.585 227.5 451.715 216.683 449.441 205.613C447.167 194.544 436.35 187.414 425.28 189.688C414.211 191.963 407.081 202.78 409.355 213.849C411.629 224.918 422.447 232.048 433.516 229.774Z" fill="white"/>
</svg>
