<svg width="667" height="653" viewBox="0 0 667 653" fill="none" xmlns="http://www.w3.org/2000/svg">
<path d="M639.18 223.249C628.736 216.851 615.207 212.806 598.999 211.231C581.334 209.503 562.963 210.914 549.542 212.634C526.067 148.127 480.239 118.679 444.981 105.285C410.592 92.2266 369.66 88.5524 333.678 95.0863C287.967 35.8103 225.524 19.8827 182.546 30.8601C167.352 34.7424 155.587 44.9506 148.519 60.3623C143.913 70.3985 141.325 82.8601 140.827 97.394C140.284 113.276 142.293 129.303 144.329 140.969C113.777 157.693 86.0215 181.077 63.5871 209.059C39.5057 239.104 21.4785 274.48 11.4604 311.367C-8.0509 383.168 2.83598 455.656 42.1029 515.494C74.1663 564.344 123.316 595.539 184.239 605.72C233.895 614 277.144 606.281 298.664 600.887C298.936 601.113 299.198 601.331 299.46 601.548L301.877 603.584C305.669 606.788 309.967 610.426 314.836 614.199C324.863 622 341.053 633.503 365.687 643.312C381.288 649.539 396.972 652.679 411.741 652.679C421.886 652.679 431.596 651.195 440.537 648.199C451.651 644.471 460.854 638.552 467.144 631.077C477.062 619.312 481.126 588.181 474.917 571.086C469.234 555.412 451.913 559.195 431.044 540.19C427.795 537.231 424.42 534.272 420.963 531.331C424.899 522.941 428.429 514.887 431.497 507.313C437.225 493.177 441.225 480.923 443.397 470.896C444.981 463.593 445.352 457.24 445.515 451.485C446.863 404.561 442.284 432.932 436.736 426.272C429.605 417.729 420.528 411.919 410.365 409.358C419.107 399.303 426.031 388.923 431.126 379.086C456.022 374.19 502.347 364.887 545.931 352.208C578.239 342.806 602.899 333.421 621.334 323.512C633.705 316.851 643.126 310.009 650.121 302.598C660.7 291.412 664.076 278.507 664.99 265.258C668.465 215.086 654.7 232.751 639.18 223.249ZM280.275 511.629C266.936 514.951 254.646 514.534 242.012 510.389C230.094 506.489 221.089 499.964 215.252 491.005C209.071 481.503 206.456 469.394 207.479 455.041C208.881 435.557 216.89 422.579 233.442 412.987C238.148 410.254 243.451 407.846 249.605 405.656C250.058 413.638 251.451 420.978 253.777 427.602C259.144 442.896 269.334 454.055 283.27 459.874C292.058 463.548 302.003 464.878 312.963 463.865C299.062 480.697 287.451 498.29 280.275 511.629Z" fill="black"/>
<path d="M185.841 18.8599C228.529 7.9549 287.47 27.8644 327.85 84.9866C357.841 77.9549 400.203 77.6744 440.076 92.8146C482.51 108.932 521.886 142.489 540.194 202.579C557.253 199.683 578.556 197.729 597.596 199.584C609.605 200.751 622.031 203.557 632.013 209.674C642.619 216.172 650.438 226.507 651.361 240.978C652.058 252 646.746 261.177 640.176 268.127C633.615 275.077 624.646 281.104 614.809 286.398C595.053 297.023 568.691 306.272 542.049 314.018C494.791 327.765 443.94 337.557 421.759 341.91C410.936 366.145 381.868 405.557 328.465 421.756C313.225 426.38 299.687 426.896 288.411 422.19C276.728 417.312 269.986 407.873 266.501 397.955C262.601 386.842 262.329 373.973 263.651 362.226C251.189 365.258 238.139 369.367 226.556 376.082C209.397 386.027 195.823 401.439 193.859 428.914C192.556 447.14 196.438 461.955 203.796 473.249C211.135 484.516 222.492 493.159 237.705 498.136C254.384 503.602 271.026 503.765 289.569 497.928C299.044 478.471 319.533 449.023 341.66 427.258C353.841 415.285 367.777 404.362 381.814 399.294C388.99 396.706 396.927 395.376 404.963 396.914C413.262 398.498 420.483 402.923 426.221 409.81C430.71 415.204 431.732 421.81 431.859 426.706C432.004 431.901 431.207 437.484 430.04 442.851C427.696 453.638 423.343 465.882 418.818 477.059C414.248 488.353 409.28 499.068 405.479 506.932C404.981 507.955 404.501 508.932 404.049 509.864C408.836 513.729 415.126 518.987 421.814 525.077C435.551 537.575 452.827 555.213 460.827 572.172C465.388 581.837 461.705 591.204 456.664 597.177C451.678 603.086 444.302 607.43 436.121 610.163C419.47 615.738 396.375 615.81 370.619 605.548C349.533 597.149 334.71 587.376 323.062 578.326C317.352 573.892 312.339 569.566 308.094 566C305.777 564.054 303.705 562.335 301.759 560.824C273.198 568.969 230.483 574.525 186.384 567.168C138.366 559.149 87.9856 535.638 53.3612 482.887C-29.7972 356.181 32.4833 186.009 159.488 123.168C156.311 108.416 153.705 89.8372 154.293 72.706C154.664 61.8463 156.339 50.4979 160.755 40.878C165.325 30.9142 173.262 22.0635 185.823 18.8599H185.841Z" fill="#40D9FF" stroke="black" stroke-width="30"/>
<path d="M433.062 229.775C444.131 227.5 451.261 216.683 448.987 205.614C446.713 194.544 435.895 187.415 424.826 189.689C413.757 191.963 406.627 202.78 408.901 213.85C411.175 224.919 421.992 232.049 433.062 229.775Z" fill="black"/>
</svg>
