<svg width="593" height="582" viewBox="0 0 593 582" fill="none" xmlns="http://www.w3.org/2000/svg">
<path d="M255.28 15.5153C293.86 17.9838 336.702 49.9773 355.104 106.493C381.524 109.168 415.336 120.321 443.346 142.838C473.619 167.175 496.868 204.673 496.78 257.602C510.945 259.867 527.617 263.835 541.864 270.05C551.474 274.243 561.336 280.031 568.29 288.17C575.768 296.922 579.811 308.467 576.433 321.664C573.779 332.033 566.169 338.704 558.566 342.858C550.976 347.003 541.733 349.61 532.219 351.336C513.092 354.804 489.065 355.346 465.418 354.613C424.683 353.351 382.176 348.17 362.296 345.759C353.391 355.241 339.066 366.601 320.121 374.767C324.994 375.266 329.944 376.573 334.593 379.132C341.64 383.01 346.835 389.133 349.94 396.889C352.579 403.484 351.435 410.001 350.17 414.295C348.81 418.91 346.551 423.482 344.13 427.635C339.257 435.992 332.373 444.929 325.734 452.828C319.008 460.832 312.121 468.254 306.951 473.645C306.942 473.655 306.933 473.664 306.925 473.673C309.55 477.773 312.689 482.858 315.904 488.496C323.726 502.213 333.396 521.538 335.5 538.095C336.872 548.895 330.316 556.641 323.961 560.591C317.684 564.493 309.903 566.151 302.148 566.221C286.295 566.364 266.831 559.997 248.165 544.484C233.025 531.902 223.393 519.849 216.211 509.266C212.712 504.109 209.742 499.214 207.274 495.255C206.293 493.68 205.394 492.258 204.545 490.962C178.979 489.784 143.362 482.868 109.908 465.473C72.5551 446.051 37.2081 413.127 22.7605 360.238C-11.5541 234.621 83.4946 112.477 203.224 93.3647C204.652 80.9137 207.43 66.1208 212.18 53.0394C215.406 44.1546 219.935 34.9396 226.466 27.8443C233.286 20.4357 242.979 14.7283 255.28 15.5153ZM222.693 320.151C213.491 319.676 204 319.898 194.888 321.851C179.321 325.186 165.363 333.439 157.059 353.894C151.454 367.699 150.828 379.92 153.584 390.143C156.331 400.338 162.737 409.67 173.158 417.278C184.227 425.359 196.496 429.646 211.672 430.033C225.023 416.545 248.98 398.576 272.23 386.975C273.305 386.439 274.391 385.91 275.485 385.391C271.904 385.608 268.238 385.689 264.49 385.616C250.521 385.341 238.521 382.102 229.806 374.615C220.718 366.806 217.48 356.37 217.254 346.72C217.043 337.737 219.371 328.515 222.693 320.151Z" stroke="black" stroke-width="30"/>
<circle cx="401.467" cy="237.126" r="17.3965" transform="rotate(6.38726 401.467 237.126)" fill="black"/>
</svg>
